<svg xmlns="http://www.w3.org/2000/svg" width="14.295" height="14.292" viewBox="0 0 14.295 14.292">
  <path id="Icon_awesome-instagram" data-name="Icon awesome-instagram" d="M7.144,5.719a3.664,3.664,0,1,0,3.664,3.664A3.658,3.658,0,0,0,7.144,5.719Zm0,6.046A2.382,2.382,0,1,1,9.526,9.384a2.387,2.387,0,0,1-2.382,2.382Zm4.669-6.2a.855.855,0,1,1-.855-.855A.853.853,0,0,1,11.813,5.569Zm2.427.867a4.229,4.229,0,0,0-1.154-2.994A4.257,4.257,0,0,0,10.09,2.288c-1.18-.067-4.717-.067-5.9,0A4.251,4.251,0,0,0,1.2,3.439,4.243,4.243,0,0,0,.045,6.434c-.067,1.18-.067,4.717,0,5.9A4.229,4.229,0,0,0,1.2,15.325a4.263,4.263,0,0,0,2.995,1.154c1.18.067,4.717.067,5.9,0a4.23,4.23,0,0,0,2.995-1.154,4.257,4.257,0,0,0,1.154-2.994c.067-1.18.067-4.713,0-5.893ZM12.715,13.6a2.412,2.412,0,0,1-1.359,1.359,15.751,15.751,0,0,1-4.213.287,15.873,15.873,0,0,1-4.213-.287A2.412,2.412,0,0,1,1.573,13.6a15.75,15.75,0,0,1-.287-4.213,15.873,15.873,0,0,1,.287-4.213A2.412,2.412,0,0,1,2.931,3.812a15.751,15.751,0,0,1,4.213-.287,15.873,15.873,0,0,1,4.213.287,2.412,2.412,0,0,1,1.359,1.359A15.75,15.75,0,0,1,13,9.384,15.741,15.741,0,0,1,12.715,13.6Z" transform="translate(0.005 -2.238)" fill="#151046"/>
</svg>
