<svg xmlns="http://www.w3.org/2000/svg" width="16.328" height="13.261" viewBox="0 0 16.328 13.261">
  <path id="Icon_awesome-twitter" data-name="Icon awesome-twitter" d="M14.649,6.686c.01.145.01.29.01.435a9.456,9.456,0,0,1-9.521,9.521A9.457,9.457,0,0,1,0,15.14a6.923,6.923,0,0,0,.808.041,6.7,6.7,0,0,0,4.154-1.43,3.352,3.352,0,0,1-3.129-2.321,4.22,4.22,0,0,0,.632.052,3.539,3.539,0,0,0,.881-.114A3.347,3.347,0,0,1,.663,8.084V8.043a3.37,3.37,0,0,0,1.513.425A3.351,3.351,0,0,1,1.14,3.992a9.512,9.512,0,0,0,6.9,3.5,3.778,3.778,0,0,1-.083-.767,3.35,3.35,0,0,1,5.791-2.29,6.588,6.588,0,0,0,2.124-.808A3.337,3.337,0,0,1,14.4,5.474a6.708,6.708,0,0,0,1.927-.518A7.193,7.193,0,0,1,14.649,6.686Z" transform="translate(0 -3.381)" fill="#151046"/>
</svg>
