<svg xmlns="http://www.w3.org/2000/svg" width="17.416" height="12.246" viewBox="0 0 17.416 12.246">
  <path id="Icon_awesome-youtube" data-name="Icon awesome-youtube" d="M18.1,6.416a2.188,2.188,0,0,0-1.54-1.55,51.717,51.717,0,0,0-6.8-.366,51.717,51.717,0,0,0-6.8.366,2.188,2.188,0,0,0-1.54,1.55,22.957,22.957,0,0,0-.364,4.219,22.957,22.957,0,0,0,.364,4.219,2.156,2.156,0,0,0,1.54,1.525,51.717,51.717,0,0,0,6.8.366,51.717,51.717,0,0,0,6.8-.366,2.156,2.156,0,0,0,1.54-1.525,22.957,22.957,0,0,0,.364-4.219A22.957,22.957,0,0,0,18.1,6.416ZM7.977,13.225V8.046l4.552,2.59-4.552,2.59Z" transform="translate(-1.05 -4.5)" fill="#151046"/>
</svg>
